<svg version="1.2" xmlns="http://www.w3.org/2000/svg" width="400" height="400" baseProfile="tiny-ps"><title>EMARKET PERÚ</title><g transform="matrix(.5 0 0 .5 -60.60851 -124.55239)"><path d="M921.217 649.105a400 400 0 0 1-799.991 2.67 400 400 0 0 1 799.955-8.01" fill="#ed1b34"/><path d="M488.388 879.423c96.556 0 180.56-25.34 180.56-123.077-39.588 33.484-78.21 57.92-123.592 57.92-37.657 0-69.52-18.1-69.52-77.828 0-10.86.966-24.434 2.897-38.914 91.728-10.86 218.217-74.208 218.217-184.616 0-63.35-44.416-94.118-123.592-94.118-175.732 0-227.873 201.81-227.873 316.743 0 77.828 50.21 143.892 142.903 143.892zM639.016 517.43c-.966 64.254-63.727 135.747-152.56 136.652 20.277-85.068 64.693-187.33 118.764-187.33 28.967 0 33.795 31.674 33.795 50.68z" fill="#fff"/></g></svg>